<svg id="visual" viewBox="0 0 900 600" width="900" height="600" xmlns="http://www.w3.org/2000/svg" xmlns:xlink="http://www.w3.org/1999/xlink" version="1.1"><rect x="0" y="0" width="900" height="600" fill="#001220"></rect><defs><linearGradient id="grad1_0" x1="33.3%" y1="0%" x2="100%" y2="100%"><stop offset="20%" stop-color="#001220" stop-opacity="1"></stop><stop offset="80%" stop-color="#001220" stop-opacity="1"></stop></linearGradient></defs><defs><linearGradient id="grad2_0" x1="0%" y1="0%" x2="66.7%" y2="100%"><stop offset="20%" stop-color="#001220" stop-opacity="1"></stop><stop offset="80%" stop-color="#001220" stop-opacity="1"></stop></linearGradient></defs><g transform="translate(900, 0)"><path d="M0 216.3C-29.6 214.9 -59.2 213.4 -82.8 199.9C-106.4 186.3 -123.9 160.8 -137.9 137.9C-151.8 115 -162.1 94.9 -174.6 72.3C-187.1 49.8 -201.7 24.9 -216.3 0L0 0Z" fill="#437acf"></path></g><g transform="translate(0, 600)"><path d="M0 -216.3C26.8 -203.3 53.6 -190.3 71.9 -173.7C90.3 -157 100.1 -136.7 123 -123C146 -109.3 182.1 -102.2 199.9 -82.8C217.6 -63.4 217 -31.7 216.3 0L0 0Z" fill="#437acf"></path></g></svg>